<svg width="19" height="14" viewBox="0 0 19 14" fill="none" xmlns="http://www.w3.org/2000/svg">
<path d="M9.4995 12.5468C9.19862 12.6856 7.72503 13.3026 5.32385 13.3026C3.99165 13.3026 2.37049 13.1131 0.5 12.5431V9.82204C0.5 8.02725 1.96095 6.56614 3.75565 6.56614H6.2446C8.03934 6.56614 9.50015 8.02725 9.4995 9.82186V9.82204V12.5468ZM7.43361 2.93298C7.43361 4.27674 6.34432 5.36622 5.00037 5.36622C3.65648 5.36622 2.56664 4.27679 2.56664 2.93323C2.56664 1.58962 3.65654 0.5 5.00037 0.5C6.34416 0.5 7.43361 1.58931 7.43361 2.93298Z" fill="#FFB635" stroke="#FFB635"/>
<path d="M18.4995 12.5468C18.1986 12.6856 16.725 13.3026 14.3238 13.3026C12.9917 13.3026 11.3705 13.1131 9.5 12.5431V9.82204C9.5 8.02725 10.9609 6.56614 12.7556 6.56614H15.2446C17.0393 6.56614 18.5001 8.02725 18.4995 9.82186V9.82204V12.5468ZM16.4336 2.93298C16.4336 4.27674 15.3443 5.36622 14.0004 5.36622C12.6565 5.36622 11.5666 4.27679 11.5666 2.93323C11.5666 1.58962 12.6565 0.5 14.0004 0.5C15.3442 0.5 16.4336 1.58931 16.4336 2.93298Z" fill="#FFB635" stroke="#FFB635"/>
</svg>
