<svg width="18" height="18" viewBox="0 0 18 18" fill="none" xmlns="http://www.w3.org/2000/svg">
<path fill-rule="evenodd" clip-rule="evenodd" d="M4.65979 3.91366C4.21812 3.71707 3.77227 3.61737 3.32624 3.61737C2.74806 3.61737 2.15606 3.79192 1.58027 4.1278C-3.43323e-05 2.31859 -6.86646e-05 0 -6.86646e-05 0C-6.86646e-05 0 3.25051 1.85583 5.29309 2.39523C4.9584 2.82646 4.73337 3.34652 4.65979 3.91366ZM16.4196 4.12836C15.8438 3.79244 15.2518 3.61789 14.6736 3.61789C14.2276 3.61789 13.7817 3.71759 13.3401 3.91415C13.2665 3.34701 13.0415 2.82695 12.7068 2.39572C14.7494 1.85632 18 0.000488281 18 0.000488281C18 0.000488281 18 2.31911 16.4196 4.12836ZM4.20166 4.86499C3.92797 4.74711 3.63343 4.67188 3.32634 4.67188C1.88409 4.67188 0.714933 6.32404 0.714933 6.32404C0.714933 6.32404 1.88409 7.97618 3.32638 7.97618C3.3526 7.97618 3.37872 7.97558 3.40477 7.97449C3.45238 6.90584 3.71868 5.84592 4.20166 4.86499ZM13.7983 4.86495C14.072 4.74707 14.3665 4.67188 14.6736 4.67188C16.1159 4.67188 17.285 6.32401 17.285 6.32401C17.285 6.32401 16.1158 7.97614 14.6736 7.97614C14.6474 7.97614 14.6213 7.97554 14.5953 7.97449C14.5476 6.90584 14.2813 5.84592 13.7983 4.86495ZM5.68086 15.2926L5.60503 15.6886C5.37655 16.8817 6.29097 17.9879 7.50583 17.9879H10.4942C11.709 17.9879 12.6234 16.8817 12.3949 15.6886L12.3191 15.2926C12.2786 15.081 12.2489 14.868 12.2297 14.6546L11.2524 11.961C10.9223 11.0512 10.8934 10.0798 11.1689 9.15198C11.4443 8.22413 11.9985 7.42591 12.7716 6.84358L13.2867 6.45553C13.1534 5.99059 12.9696 5.53672 12.7349 5.10243L12.3122 4.32045C12.3122 3.16511 11.3756 2.22852 10.2203 2.22852H7.77966C6.62432 2.22852 5.68772 3.16511 5.68772 4.32045L5.26503 5.10243C5.0303 5.53672 4.84657 5.99059 4.71319 6.45553L5.22833 6.84358C6.00138 7.42591 6.55562 8.22413 6.83107 9.15198C7.10652 10.0798 7.07762 11.0512 6.7475 11.961L5.77023 14.6545C5.75107 14.868 5.7214 15.081 5.68086 15.2926ZM10.6476 16.3074H9.59295V15.1871H10.6476V16.3074ZM8.40698 16.3074H7.3523V15.1871H8.40698V16.3074ZM12.1799 9.45212C12.3907 8.74224 12.8147 8.13154 13.4062 7.68597L13.5117 7.60645C13.6462 8.87032 13.4245 10.1648 12.8438 11.3351C12.8245 11.3741 12.8055 11.4132 12.787 11.4526C12.6648 11.7111 12.5621 11.9769 12.4784 12.2478L12.2438 11.6012C11.9913 10.9051 11.9692 10.162 12.1799 9.45212ZM4.59374 7.68593L4.4882 7.60645C4.35369 8.87031 4.57542 10.1648 5.15613 11.3351C5.17547 11.3741 5.19446 11.4132 5.21302 11.4525C5.33515 11.7111 5.43788 11.9768 5.52152 12.2477L5.75608 11.6012C6.00861 10.9051 6.03072 10.1619 5.81999 9.45207C5.60927 8.7422 5.18521 8.13147 4.59374 7.68593Z" fill="#FFB635"/>
</svg>
