<svg width="20" height="24" viewBox="0 0 20 24"  xmlns="http://www.w3.org/2000/svg">
<path d="M19.5871 19.0994C19.5128 19.0536 18.9536 18.6816 18.3937 17.5564C17.3654 15.49 17.1496 12.5792 17.1496 10.5012C17.1496 10.4921 17.1494 10.4832 17.1491 10.4742C17.1379 7.72781 15.4059 5.36034 12.9275 4.29811V2.67356C12.9275 1.19934 11.6665 0 10.1165 0H9.88351C8.3335 0 7.07247 1.19934 7.07247 2.67356V4.29802C4.58577 5.36367 2.85038 7.74323 2.85038 10.5012C2.85038 12.5792 2.63455 15.49 1.60629 17.5564C1.04642 18.6816 0.487243 19.0535 0.412896 19.0994C0.0998124 19.2369 -0.0545576 19.5548 0.0174685 19.8768C0.0901858 20.2021 0.410379 20.4263 0.760043 20.4263H6.18777C6.21808 22.4017 7.916 24 10 24C12.084 24 13.782 22.4017 13.8123 20.4263H19.24C19.5896 20.4263 19.9099 20.2021 19.9826 19.8768C20.0545 19.5548 19.9002 19.2369 19.5871 19.0994ZM8.55352 2.67356C8.55352 1.97602 9.15017 1.40855 9.88356 1.40855H10.1165C10.8499 1.40855 11.4466 1.97602 11.4466 2.67356V3.84155C10.9792 3.74981 10.4953 3.70153 9.99982 3.70153C9.50448 3.70153 9.02078 3.74977 8.55357 3.84141V2.67356H8.55352ZM10 22.5915C8.73263 22.5915 7.69884 21.625 7.66877 20.4264H12.3312C12.3012 21.625 11.2674 22.5915 10 22.5915ZM12.9818 19.0177C12.9816 19.0177 2.44765 19.0177 2.44765 19.0177C2.57575 18.8282 2.70613 18.6135 2.83572 18.371C3.82819 16.5127 4.33143 13.8649 4.33143 10.5012C4.33143 7.5285 6.87426 5.11008 9.99977 5.11008C13.1253 5.11008 15.6681 7.5285 15.6681 10.5035C15.6681 10.5122 15.6683 10.5208 15.6686 10.5294C15.6714 13.8797 16.1746 16.518 17.1643 18.371C17.2939 18.6136 17.4243 18.8282 17.5524 19.0177H12.9818Z" />
</svg>
