<svg width="31" height="31" viewBox="0 0 31 31" fill="none" xmlns="http://www.w3.org/2000/svg">
<path d="M24.5871 21.0994C24.5128 21.0536 23.9536 20.6816 23.3937 19.5564C22.3654 17.49 22.1496 14.5792 22.1496 12.5012C22.1496 12.4921 22.1494 12.4832 22.1491 12.4742C22.1379 9.72781 20.4059 7.36034 17.9275 6.29811V4.67356C17.9275 3.19934 16.6665 2 15.1165 2H14.8835C13.3335 2 12.0725 3.19934 12.0725 4.67356V6.29802C9.58577 7.36367 7.85038 9.74323 7.85038 12.5012C7.85038 14.5792 7.63455 17.49 6.60629 19.5564C6.04642 20.6816 5.48724 21.0535 5.4129 21.0994C5.09981 21.2369 4.94544 21.5548 5.01747 21.8768C5.09019 22.2021 5.41038 22.4263 5.76004 22.4263H11.1878C11.2181 24.4017 12.916 26 15 26C17.084 26 18.782 24.4017 18.8123 22.4263H24.24C24.5896 22.4263 24.9099 22.2021 24.9826 21.8768C25.0545 21.5548 24.9002 21.2369 24.5871 21.0994ZM13.5535 4.67356C13.5535 3.97602 14.1502 3.40855 14.8836 3.40855H15.1165C15.8499 3.40855 16.4466 3.97602 16.4466 4.67356V5.84155C15.9792 5.74981 15.4953 5.70153 14.9998 5.70153C14.5045 5.70153 14.0208 5.74977 13.5536 5.84141V4.67356H13.5535ZM15 24.5915C13.7326 24.5915 12.6988 23.625 12.6688 22.4264H17.3312C17.3012 23.625 16.2674 24.5915 15 24.5915ZM17.9818 21.0177C17.9816 21.0177 7.44765 21.0177 7.44765 21.0177C7.57575 20.8282 7.70613 20.6135 7.83572 20.371C8.82819 18.5127 9.33143 15.8649 9.33143 12.5012C9.33143 9.5285 11.8743 7.11008 14.9998 7.11008C18.1253 7.11008 20.6681 9.5285 20.6681 12.5035C20.6681 12.5122 20.6683 12.5208 20.6686 12.5294C20.6714 15.8797 21.1746 18.518 22.1643 20.371C22.2939 20.6136 22.4243 20.8282 22.5524 21.0177H17.9818Z" fill="#DEDEDE"/>
<rect x="6.08865" y="2.13893" width="31.7447" height="5" rx="2.5" transform="rotate(45 6.08865 2.13893)" fill="#DEDEDE" stroke="white" stroke-width="3"/>
</svg>
