<svg width="57" height="53" viewBox="0 0 57 53" fill="none" xmlns="http://www.w3.org/2000/svg">
<path d="M55.7263 26.9839L49.6609 18.0499L55.7263 9.11593C56.0098 8.68979 56.0787 8.15788 55.9137 7.67399C55.7471 7.19011 55.3657 6.81034 54.8803 6.65022L35.0828 0.0875288C34.3746 -0.151244 33.6088 0.117936 33.1986 0.733188L28.0009 8.52955L22.8033 0.733188C22.39 0.114764 21.6176 -0.152884 20.919 0.0875288L1.1216 6.65022C0.636177 6.81045 0.254776 7.19022 0.088193 7.67399C-0.0768586 8.15788 -0.00795036 8.68979 0.275667 9.11604L6.34112 18.05L0.275776 26.9839C-0.00784099 27.4101 -0.0767492 27.9421 0.0883024 28.426C0.254885 28.9099 0.636287 29.2896 1.12171 29.4498L20.9191 36.0124C21.6159 36.2467 22.3909 35.9852 22.8034 35.3668L28.001 27.5704L33.1987 35.3668C33.6115 35.9859 34.387 36.2466 35.083 36.0124L54.8804 29.4498C55.3658 29.2895 55.7472 28.9098 55.9138 28.426C56.0788 27.9421 56.0099 27.4102 55.7263 26.9839ZM28.001 22.8839L13.4994 18.05L28.001 13.2162L42.5027 18.05L28.001 22.8839Z" fill="#FFB635"></path>
<path d="M36.1206 39.1257C34.0556 39.8185 31.7208 39.0672 30.468 37.187L28.0007 33.4861L25.5331 37.187C24.2828 39.0636 21.9508 39.8218 19.8725 39.1225L6.67188 34.7226V44.3009C6.67188 45.0074 7.12372 45.634 7.79344 45.8567L27.4719 52.4162C27.5312 52.437 27.5904 52.453 27.6497 52.4658C27.6497 52.4658 27.6514 52.4658 27.6514 52.4675H27.653C27.7684 52.4915 27.8853 52.5043 28.0007 52.5043C28.1241 52.5043 28.2458 52.4899 28.3676 52.4627C28.422 52.4499 28.4749 52.4354 28.5278 52.4178L48.2079 45.8568C48.8775 45.634 49.3293 45.0074 49.3293 44.3009V34.7228L36.1206 39.1257Z" fill="#FFB635"></path>
</svg>
