<svg xmlns="http://www.w3.org/2000/svg" viewBox="0 0 19 14"><path d="M1 6c-.552285 0-1 .44772-1 1s.447715 1 1 1V6zm17 1l.727.68662c.364-.38539.364-.98785 0-1.37324L18 7zM13.0603.313376c-.3792-.4015178-1.0121-.419601-1.4136-.040389-.4015.379211-.4196 1.012123-.0404 1.413633l1.454-1.373244zM11.6063 12.3134c-.3792.4015-.3611 1.0344.0404 1.4136.4015.3792 1.0344.3611 1.4136-.0404l-1.454-1.3732zM1 8h17V6H1v2zm17.727-1.68662L13.0603.313376l-1.454 1.373244 5.6667 6 1.454-1.37324zm-1.454 0l-5.6667 6.00002 1.454 1.3732 5.6667-5.99998-1.454-1.37324z"/></svg>
