<svg width="19" height="19" viewBox="0 0 19 19"  xmlns="http://www.w3.org/2000/svg">
<path fill-rule="evenodd" clip-rule="evenodd" d="M14.5306 3.33764C14.2306 3.33764 13.943 3.4568 13.7309 3.66889C13.5188 3.88099 13.3996 4.16865 13.3996 4.4686C13.3996 4.76854 13.5188 5.05621 13.7309 5.2683C13.943 5.4804 14.2306 5.59955 14.5306 5.59955C14.8305 5.59955 15.1182 5.4804 15.3303 5.2683C15.5424 5.05621 15.6615 4.76854 15.6615 4.4686C15.6615 4.16865 15.5424 3.88099 15.3303 3.66889C15.1182 3.4568 14.8305 3.33764 14.5306 3.33764ZM9.5001 12.6422C8.66661 12.6419 7.86739 12.3104 7.27828 11.7208C6.68917 11.1312 6.35841 10.3317 6.35877 9.49817C6.35913 8.66467 6.69058 7.86546 7.2802 7.27635C7.86982 6.68723 8.66932 6.35647 9.50281 6.35683C10.3363 6.35719 11.1355 6.68864 11.7246 7.27827C12.3137 7.86789 12.6445 8.66739 12.6441 9.50088C12.6438 10.3344 12.3123 11.1336 11.7227 11.7227C11.1331 12.3118 10.3336 12.6426 9.5001 12.6422ZM9.5001 4.66041C8.85668 4.64796 8.21725 4.76395 7.61919 5.00157C7.02113 5.23919 6.47646 5.59369 6.01703 6.04432C5.5576 6.49494 5.19265 7.03266 4.9435 7.62601C4.69436 8.21937 4.56604 8.85644 4.56604 9.49998C4.56604 10.1435 4.69436 10.7806 4.9435 11.3739C5.19265 11.9673 5.5576 12.505 6.01703 12.9556C6.47646 13.4063 7.02113 13.7608 7.61919 13.9984C8.21725 14.236 8.85668 14.352 9.5001 14.3395C10.7836 14.3395 12.0146 13.8297 12.9222 12.9221C13.8298 12.0145 14.3397 10.7835 14.3397 9.49998C14.3397 8.21644 13.8298 6.98548 12.9222 6.07788C12.0146 5.17029 10.7836 4.66041 9.5001 4.66041ZM17.1725 13.3081C17.13 14.2274 16.9761 14.7259 16.8468 15.0579C16.6749 15.4985 16.4722 15.8125 16.142 16.1418C15.8386 16.4555 15.468 16.6962 15.0581 16.8457C14.7269 16.976 14.2275 17.1289 13.3082 17.1715C12.3148 17.2167 12.0171 17.2266 9.4992 17.2266C6.98396 17.2266 6.68539 17.2167 5.69196 17.1715C4.77272 17.1289 4.2742 16.976 3.94215 16.8457C3.53244 16.6957 3.16191 16.4551 2.85824 16.1418C2.54493 15.8378 2.30377 15.4674 2.15253 15.0579C2.02405 14.7259 1.87024 14.2274 1.82862 13.3081C1.78339 12.3147 1.77434 12.0161 1.77434 9.50088C1.77434 6.98293 1.78339 6.68526 1.82862 5.69183C1.87024 4.7726 2.02405 4.27407 2.15343 3.94203C2.32353 3.5005 2.528 3.18745 2.85824 2.85812C3.18848 2.52788 3.50243 2.32431 3.94215 2.15241C4.2742 2.02303 4.77272 1.87012 5.69196 1.8285C6.68539 1.78326 6.98305 1.77422 9.5001 1.77422C12.0171 1.77422 12.3148 1.78326 13.3082 1.8285C14.2275 1.87012 14.7269 2.02303 15.0581 2.15331C15.4679 2.30354 15.8384 2.54448 16.142 2.85812C16.4722 3.18745 16.6758 3.5005 16.8477 3.94203C16.9761 4.27407 17.13 4.7726 17.1725 5.69183C17.2177 6.68526 17.2268 6.98293 17.2268 9.50088C17.2268 12.0161 17.2177 12.3147 17.1725 13.3081ZM18.8689 5.61493C18.8228 4.61064 18.6635 3.92574 18.431 3.32588C18.1941 2.69709 17.8226 2.12767 17.3426 1.6575C16.8721 1.1781 16.3027 0.806982 15.6742 0.569978C15.0734 0.337454 14.3894 0.176407 13.3851 0.132978C12.3809 0.0859304 12.0597 0.0750732 9.5001 0.0750732C6.94143 0.0750732 6.61934 0.0868352 5.61505 0.132978C4.61077 0.177311 3.92586 0.337454 3.326 0.569978C2.69754 0.807111 2.12824 1.17821 1.65762 1.6575C1.17782 2.12804 0.806648 2.69777 0.5701 3.32679C0.337576 3.92574 0.178338 4.61155 0.1331 5.61493C0.0860525 6.61922 0.0751953 6.94131 0.0751953 9.50088C0.0751953 12.0586 0.0869572 12.3807 0.1331 13.385C0.178338 14.3884 0.337576 15.0742 0.5701 15.6732C0.807195 16.3019 1.17829 16.8715 1.65762 17.3425C2.18239 17.8672 2.70715 18.1884 3.32691 18.4291C3.92586 18.6625 4.61167 18.8226 5.61505 18.8679C6.61934 18.9131 6.94143 18.9249 9.5001 18.9249C12.0597 18.9249 12.3809 18.914 13.3851 18.8679C14.3894 18.8226 15.0734 18.6625 15.6742 18.4291C16.3026 18.1928 16.872 17.8222 17.3426 17.3434C17.8223 16.8722 18.1937 16.3023 18.431 15.6732C18.6635 15.0742 18.8228 14.3884 18.8689 13.385C18.9132 12.3807 18.9241 12.0586 18.9241 9.50088C18.9241 6.94041 18.9132 6.61831 18.8689 5.61493Z" />
</svg>
