<svg width="63" height="48" viewBox="0 0 63 48" xmlns="http://www.w3.org/2000/svg">
<path d="M45.7009 39.8735C46.5252 39.8735 47.1297 39.2416 47.1297 38.3898V22.688C47.1297 21.8362 46.5252 21.2043 45.7009 21.2043C44.8491 21.2043 44.2447 21.8362 44.2447 22.688V38.3898C44.2447 39.2416 44.8766 39.8735 45.7009 39.8735Z" />
<path d="M39.4682 21.7263C38.3966 21.7263 37.5448 22.5506 37.5448 23.5948C37.5448 24.6389 38.3966 25.4632 39.4682 25.4632C40.5123 25.4632 41.3916 24.6389 41.3916 23.5948C41.3916 22.5506 40.5123 21.7263 39.4682 21.7263Z" />
<path d="M25.2677 27.8936C26.2843 26.5747 27.933 25.7778 29.8289 25.7778C32.9063 25.7778 34.8297 27.8386 34.8297 31.1358V38.3898C34.8297 39.269 34.1977 39.8735 33.3734 39.8735C32.5491 39.8735 31.9171 39.2416 31.9171 38.3898V31.548C31.9171 29.6246 30.8455 28.4156 29.1145 28.4156C27.4109 28.4156 26.147 29.6796 26.147 31.4106V38.3898C26.147 39.269 25.515 39.8735 24.7182 39.8735C23.8664 39.8735 23.2619 39.2416 23.2619 38.3898V31.548C23.2619 29.6521 22.1353 28.4156 20.4317 28.4156C18.6732 28.4156 17.4642 29.6796 17.4642 31.548V38.3898C17.4642 39.269 16.8597 39.8735 16.0354 39.8735C15.2111 39.8735 14.5791 39.2416 14.5791 38.3898V27.2616C14.5791 26.4098 15.1836 25.7778 16.0354 25.7778C16.8048 25.7778 17.4093 26.3823 17.4367 27.1792C18.371 26.2999 19.6624 25.7778 21.1736 25.7778C23.0146 25.7778 24.4434 26.5197 25.2677 27.8936Z" />
<path d="M40.897 38.3898C40.897 39.2416 40.265 39.8735 39.4407 39.8735C38.6164 39.8735 38.0119 39.2416 38.0119 38.3898V28.4307C38.0119 27.5789 38.6164 26.947 39.4682 26.947C40.2925 26.947 40.897 27.5789 40.897 28.4307V38.3898Z" />
<path fill-rule="evenodd" clip-rule="evenodd" d="M49.6256 32.8394C49.6256 28.8553 52.6481 25.7778 56.5773 25.7778C60.1768 25.7778 62.8421 28.4156 62.8421 32.0426V32.18C62.8421 33.1691 62.2101 33.7736 61.1935 33.7736H52.5657C52.9504 35.9443 54.5715 37.3182 56.962 37.3182C58.116 37.3182 59.2151 36.961 60.1219 36.2741C60.3692 36.1092 60.6165 35.9993 60.8638 35.9993C61.5507 35.9993 62.0727 36.5213 62.0727 37.2083C62.0727 37.7029 61.8804 38.0326 61.3583 38.4173C60.0669 39.379 58.5557 39.8735 56.8796 39.8735C52.7031 39.8735 49.6256 36.8785 49.6256 32.8394ZM59.957 31.5205C59.9021 29.5697 58.5282 28.2233 56.4949 28.2233C54.544 28.2233 53.0603 29.5422 52.6206 31.5205H59.957Z" />
<path d="M6.05249 37.2619C-12.8563 39.9884 27.0756 55.9231 62.5036 41.6832C63.2115 41.4179 62.8528 40.4342 62.137 40.6773C33.0517 50.556 0.377367 40.4103 6.58113 39.8379C9.68788 39.5504 11.8701 37.5455 11.8701 34.6254C11.8701 32.3174 10.5512 30.8611 7.5287 29.4597L5.4954 28.5255C3.51706 27.5913 2.96752 27.0692 2.96752 25.9427C2.96752 24.5963 4.0666 23.7445 5.71522 23.7445C7.03412 23.7445 8.10572 24.349 8.98498 25.2283C9.25976 25.4756 9.562 25.613 9.86425 25.613C10.5512 25.613 11.2106 25.0085 11.2106 24.3215C11.2106 23.9918 11.1007 23.6346 10.771 23.2774C9.72686 22.1234 8.07824 21.1067 5.71522 21.1342C2.44545 21.1342 0 23.195 0 26.0526C0 28.2233 1.34637 29.7345 4.23146 31.0809L6.23728 32.0151C8.24311 32.9493 8.90256 33.5538 8.90256 34.7353C8.90256 36.1533 7.83817 37.1359 6.11797 37.2517C6.09503 37.2533 6.07322 37.2567 6.05249 37.2619Z" />
<path d="M37.1523 2.62588C37.2477 2.63209 37.3354 2.63779 37.423 2.63779C38.1923 2.63779 38.7144 2.17068 38.7144 1.48376C38.7144 0.879265 38.3847 0.439631 37.8626 0.247293C37.423 0.0824316 36.9284 0 36.2964 0C33.3838 0 31.6528 1.73105 31.6528 4.69857V6.5029H30.7186C30.0042 6.5029 29.4546 7.05244 29.4546 7.76684C29.4546 8.48124 30.0042 9.0033 30.7186 9.0033H31.6528V17.4388C31.6528 18.2905 32.2573 18.9225 33.1091 18.9225C33.9334 18.9225 34.5379 18.318 34.5379 17.4388V9.0033H36.7086C36.9675 9.0033 37.203 8.93971 37.3999 8.82654C37.597 8.93971 37.8296 9.0033 38.079 9.0033H39.1506V14.2239C39.1506 17.2739 40.9091 18.9225 44.1239 18.9225C44.8933 18.9225 45.4703 18.8401 45.9374 18.6477C46.487 18.4554 46.7892 18.0432 46.7892 17.4388C46.7892 16.7518 46.2946 16.2847 45.5253 16.2847C45.4105 16.2847 45.2957 16.2906 45.1727 16.297C45.0307 16.3043 44.8776 16.3122 44.7009 16.3122C42.86 16.3122 42.0632 15.6253 42.0632 13.9766V9.0033H44.9482C45.6901 9.0033 46.2397 8.48124 46.2397 7.76684C46.2397 7.05244 45.6901 6.5029 44.9482 6.5029H42.0632V5.05577C42.0632 4.20398 41.4312 3.57201 40.6069 3.57201C39.7826 3.57201 39.1506 4.23146 39.1506 5.05577V6.5029H38.079C37.8296 6.5029 37.597 6.56983 37.3999 6.68736C37.203 6.56983 36.9675 6.5029 36.7086 6.5029H34.5379V4.94586C34.5379 3.43463 35.3347 2.61032 36.7635 2.61032C36.9131 2.61032 37.0383 2.61846 37.1523 2.62588Z" />
<path d="M12.5296 13.6744C12.5296 16.8343 9.97428 18.9225 6.45722 18.9225C4.20411 18.9225 1.84108 17.8509 0.439754 16.1473C0.164984 15.8451 0.00012207 15.4879 0.00012207 15.1307C0.00012207 14.3613 0.632094 13.8118 1.3465 13.8118C1.67622 13.8118 1.97847 13.9217 2.22576 14.1965C3.21493 15.378 4.64374 16.3122 6.42975 16.3122C8.35314 16.3122 9.56213 15.2955 9.56213 13.7843C9.56213 12.6028 8.90268 11.9983 6.89686 11.0641L4.89103 10.1299C2.00594 8.78349 0.659571 7.27225 0.659571 5.10157C0.659571 2.24396 3.10503 0.183181 6.37479 0.183181C8.73782 0.155703 10.3864 1.17235 11.4306 2.32639C11.7603 2.68359 11.8702 3.04079 11.8702 3.37052C11.8702 4.05744 11.2107 4.66193 10.5238 4.66193C10.2216 4.66193 9.91933 4.52455 9.64456 4.27726C8.76529 3.39799 7.69369 2.7935 6.37479 2.7935C4.72617 2.7935 3.62709 3.64529 3.62709 4.99166C3.62709 6.11822 4.17663 6.64028 6.15498 7.5745L8.18828 8.50872C11.2107 9.91005 12.5296 11.3663 12.5296 13.6744Z" />
<path fill-rule="evenodd" clip-rule="evenodd" d="M14.3869 11.8609C14.3869 7.90422 17.5193 4.8268 21.5035 4.8268C25.5151 4.8268 28.675 7.9317 28.675 11.8609C28.675 15.7901 25.5151 18.9225 21.5035 18.9225C17.5193 18.895 14.3869 15.7901 14.3869 11.8609ZM25.7075 11.8884C25.7075 9.36051 23.894 7.49207 21.5309 7.46459C19.113 7.49207 17.327 9.36051 17.327 11.8884C17.327 14.3888 19.113 16.2572 21.5035 16.2572C23.894 16.2572 25.7075 14.3613 25.7075 11.8884Z" />
</svg>
