<svg width="134" height="43" viewBox="0 0 134 43" fill="none" xmlns="http://www.w3.org/2000/svg">
<path fill-rule="evenodd" clip-rule="evenodd" d="M11.8165 43H14.5426V25.9792H11.8165V43ZM22.7224 42.7449H25.5061V32.0035L37.265 43V26.2343H34.4827V36.7937L22.7224 25.9792V42.7449ZM44.6768 38.624C46.2516 39.8323 48.1377 40.5304 50.1635 40.5304C52.1318 40.5304 53.5121 39.8581 53.5121 38.3818C53.5121 37.0932 52.6389 36.583 51.0915 36.0197L48.5872 35.1597C46.2819 34.357 44.537 33.1745 44.537 30.4626C44.537 27.563 47.181 25.9792 50.3609 25.9792C52.3018 25.9792 54.074 26.4622 55.4529 27.3222V30.1946C54.0179 29.1483 52.4416 28.4216 50.4171 28.4216C48.6723 28.4216 47.3769 29.0666 47.3769 30.4096C47.3769 31.6165 48.1939 32.1009 49.629 32.584L52.4142 33.55C55.1158 34.4889 56.352 35.9394 56.352 38.3288C56.352 41.3359 53.6807 43 50.1635 43C47.8567 43 45.8871 42.355 44.6768 41.5509V38.624ZM62.7149 43H65.4424V25.9792H62.7149V43ZM80.8409 40.4229C84.3566 40.4229 86.2384 38.1209 86.2384 34.4889C86.2384 30.8296 84.3566 28.5291 80.8409 28.5291H77.3656V40.4229H80.8409ZM74.5299 25.9792H80.9504C85.8839 25.9792 89.074 29.3045 89.074 34.4889C89.074 39.6732 85.8839 43 80.9504 43H74.5314V25.9792H74.5299ZM105.434 25.9792V28.5291H98.173V32.6241H104.683V35.1482H98.173V40.4229H105.434V43H95.4354V25.9792H105.434ZM115.486 33.6848H118.609C120.453 33.6848 121.498 32.6599 121.498 31.079C121.498 29.4994 120.454 28.4746 118.609 28.4746H115.486V33.6833V33.6848ZM115.486 36.0971V43H112.706V25.9792H118.662C122.06 25.9792 124.253 27.7536 124.253 31.079C124.253 33.9356 123.028 35.571 120.434 35.9867L126.339 43H123.183L117.466 36.0971H115.485H115.486ZM121.796 4.48347C121.796 7.1939 123.539 8.3764 125.845 9.18193L128.35 10.0405C129.896 10.6038 130.77 11.1155 130.77 12.4026C130.77 13.879 129.391 14.5512 127.421 14.5512C125.395 14.5512 123.511 13.8532 121.936 12.6449V15.5703C123.146 16.3758 125.114 17.0208 127.421 17.0208C130.937 17.0208 133.611 15.3553 133.611 12.3482C133.611 9.96023 132.372 8.5097 129.672 7.57087L126.886 6.6048C125.451 6.12033 124.636 5.6373 124.636 4.429C124.636 3.0874 125.93 2.44383 127.673 2.44383C129.7 2.44383 131.275 3.16767 132.71 4.214V1.34303C131.332 0.483033 129.559 0 127.617 0C124.437 0 121.793 1.58383 121.793 4.48347H121.796ZM86.3464 0V17.0208H96.3446V14.4466H89.0869V9.16473H95.5968V6.64493H89.0869V2.54847H96.3446V0H86.3464ZM47.5037 7.7056H50.8335C52.8018 7.7056 53.9156 6.68077 53.9156 5.0998C53.9156 3.52027 52.8018 2.49543 50.8335 2.49543H47.5052V7.7056H47.5037ZM47.5037 10.1179V17.0208H44.5355V0H50.8912C54.5149 0 56.8535 1.77447 56.8535 5.0998C56.8535 7.95643 55.5495 9.59187 52.7816 10.0075L59.0782 17.0208H55.7137L49.6146 10.1179H47.5037ZM68.3472 7.40173L75.2201 0H78.8237L71.0848 8.14993L79.0759 17.0208H75.3873L68.3472 9.2321V17.0208H65.4424V0H68.3472V7.40173ZM102.707 0H117.25V2.55133H111.455V17.0208H108.501V2.55133H102.707V0ZM27.5824 12.3983L30.4353 5.87667L33.2882 12.3983H27.5824ZM35.3112 17.0208H38.1742L30.4483 0L22.7224 17.0208H25.5609L26.5118 14.845H34.3588L35.3112 17.0208ZM14.4576 7.34727V17.0208H17.2687V0L8.63508 9.07157L0 0V17.0208H2.81256V7.34727L8.63508 13.4633L14.4576 7.34727Z" fill="#185F7D"/>
</svg>
