<svg width="170" height="67" viewBox="0 0 170 67" fill="none" xmlns="http://www.w3.org/2000/svg">
<path d="M93.9074 14.6035H90.6572V50.084H93.9074V14.6035Z" fill="#EA293C"/>
<path d="M135.416 14.6035H145.784V17.5609H142.258V50.084H138.994V17.5609H135.416V14.6035Z" fill="#EA293C"/>
<path d="M87.6864 14.6035V50.084H84.2823L79.4157 28.5368V50.084H76.2222V14.6035H79.1594L84.4928 38.1085V14.6035H87.6864Z" fill="#EA293C"/>
<path d="M17.0148 14.6035V50.084H13.8213V19.6714L9.88023 50.084H7.22094L3.34333 19.6714V50.084H0.129517V14.6035H5.56682L8.68079 35.9939L11.6167 14.6035H17.0148Z" fill="#EA293C"/>
<path d="M56.5978 50.0946C58.862 47.0355 60.2279 43.4129 60.5437 39.6292C60.8596 35.8455 60.113 32.0489 58.387 28.6613C56.661 25.2736 54.0231 22.4276 50.7665 20.4393C47.5098 18.451 43.7619 17.3984 39.9392 17.3984C36.1164 17.3984 32.3685 18.451 29.1118 20.4393C25.8552 22.4276 23.2173 25.2736 21.4913 28.6613C19.7653 32.0489 19.0188 35.8455 19.3346 39.6292C19.6505 43.4129 21.0164 47.0355 23.2805 50.0946H27.5804C25.1633 47.6705 23.5225 44.5902 22.8646 41.2416C22.2068 37.8931 22.5613 34.4261 23.8836 31.2773C25.2059 28.1285 27.4368 25.4388 30.2953 23.5468C33.1538 21.6548 36.5121 20.6453 39.9473 20.6453C43.3824 20.6453 46.7407 21.6548 49.5992 23.5468C52.4577 25.4388 54.6886 28.1285 56.0109 31.2773C57.3332 34.4261 57.6877 37.8931 57.0299 41.2416C56.372 44.5902 54.7312 47.6705 52.3141 50.0946H56.5978Z" fill="#EA293C"/>
<path d="M157.549 50.0838H154.372L153.532 42.092H148.777L148.008 50.0838H144.77L148.425 14.606H153.382L157.549 50.0838ZM153.232 38.8881L151.073 19.3241L149.079 38.8881H153.235H153.232Z" fill="#EA293C"/>
<path d="M118.73 45.5776C118.785 45.8732 118.773 46.177 118.696 46.4677C118.619 46.7583 118.479 47.0286 118.285 47.2594C118.092 47.4902 117.849 47.6759 117.575 47.8034C117.301 47.9308 117.002 47.9969 116.7 47.9969C116.397 47.9969 116.098 47.9308 115.824 47.8034C115.55 47.6759 115.308 47.4902 115.114 47.2594C114.92 47.0286 114.78 46.7583 114.703 46.4677C114.626 46.177 114.615 45.8732 114.669 45.5776V18.7776C114.615 18.482 114.626 18.1781 114.703 17.8875C114.78 17.5968 114.92 17.3265 115.114 17.0957C115.308 16.8649 115.55 16.6792 115.824 16.5517C116.098 16.4243 116.397 16.3582 116.7 16.3582C117.002 16.3582 117.301 16.4243 117.575 16.5517C117.849 16.6792 118.092 16.8649 118.285 17.0957C118.479 17.3265 118.619 17.5968 118.696 17.8875C118.773 18.1781 118.785 18.482 118.73 18.7776L118.722 20.0586V26.7479H121.99V21.5929V20.1015C121.967 15.6795 120.225 13.5703 116.593 13.5703C113.355 13.5703 111.25 15.8483 111.25 19.3511V20.6536V42.8627V44.3005C111.25 48.8472 113.026 51.0635 116.67 51.0635C120.314 51.0635 121.995 48.8874 121.995 44.2067V31.2985H115.985V34.406H118.717V44.401L118.73 45.5776Z" fill="#EA293C"/>
<path d="M132.12 44.7279V35.5034L124.676 29.9772V19.6673C124.676 15.6151 126.512 13.5435 130.107 13.5435C133.759 13.5435 135.42 15.599 135.44 20.155L135.449 21.5687V26.8001H132.12V19.7838L132.113 18.7788C132.169 18.4849 132.16 18.1821 132.085 17.8922C132.01 17.6022 131.872 17.3323 131.68 17.1016C131.488 16.871 131.247 16.6853 130.974 16.5578C130.702 16.4303 130.404 16.3642 130.103 16.3642C129.801 16.3642 129.504 16.4303 129.231 16.5578C128.958 16.6853 128.717 16.871 128.525 17.1016C128.333 17.3323 128.195 17.6022 128.12 17.8922C128.045 18.1821 128.036 18.4849 128.092 18.7788V28.4349L135.448 33.9543V44.6221C135.448 48.7922 133.578 51.0259 130.085 51.0259C126.546 51.0259 124.706 48.9208 124.688 44.8526V43.4496V36.5057H128.094V45.5788C128.037 45.8728 128.046 46.1756 128.121 46.4655C128.196 46.7554 128.334 47.0254 128.527 47.256C128.719 47.4867 128.96 47.6724 129.232 47.7999C129.505 47.9273 129.803 47.9934 130.104 47.9934C130.405 47.9934 130.703 47.9273 130.976 47.7999C131.248 47.6724 131.489 47.4867 131.681 47.256C131.873 47.0254 132.012 46.7554 132.086 46.4655C132.161 46.1756 132.171 45.8728 132.114 45.5788L132.12 44.7279Z" fill="#EA293C"/>
<path d="M74.2481 50.0838H70.9912C70.5403 48.8628 70.3163 47.5706 70.33 46.2702L70.3031 44.4558L70.2936 43.5339V36.6074C70.3285 36.3391 70.3046 36.0664 70.2234 35.8081C70.1423 35.5499 70.0058 35.3121 69.8235 35.1111C69.6411 34.9101 69.4171 34.7507 69.1669 34.6437C68.9166 34.5368 68.646 34.4849 68.3737 34.4916H66.049V50.0838H62.8608V14.606H67.0218C71.6954 14.606 73.498 16.3037 73.498 20.8423V27.5061C73.498 30.4917 72.9961 31.7432 70.6431 32.6048C70.6768 32.6142 70.7092 32.629 70.7416 32.6383C72.9637 33.2815 73.4616 34.1123 73.4872 36.9183L73.498 38.2074V44.6823C73.4214 46.5128 73.6755 48.3422 74.2481 50.0838ZM66.049 17.3972V31.4484H67.1904C67.6066 31.5209 68.0341 31.4943 68.4378 31.3708C68.8415 31.2472 69.21 31.0303 69.5129 30.7378C69.8158 30.4454 70.0445 30.0857 70.1803 29.6883C70.316 29.291 70.3548 28.8673 70.2936 28.4522V21.2162C70.2936 18.303 69.619 17.3918 67.4441 17.3918H66.049V17.3972Z" fill="#EA293C"/>
<path d="M169.785 50.0838H166.526C166.075 48.8629 165.851 47.5706 165.866 46.2702L165.839 44.4558L165.827 43.5352V36.6074C165.862 36.3392 165.838 36.0667 165.757 35.8085C165.676 35.5503 165.539 35.3126 165.357 35.1116C165.175 34.9106 164.951 34.7512 164.701 34.6442C164.451 34.5371 164.18 34.4851 163.908 34.4916H161.586V50.0838H158.397V14.606H162.559C167.233 14.606 169.035 16.3037 169.035 20.8423V27.5061C169.035 30.4917 168.532 31.7432 166.184 32.6048C166.215 32.6142 166.248 32.629 166.283 32.6383C168.504 33.2815 169.003 34.1123 169.028 36.9183L169.037 38.2074V44.6823C168.959 46.5128 169.212 48.3423 169.785 50.0838ZM161.586 17.3972V31.4484H162.732C163.147 31.5195 163.574 31.4918 163.976 31.3676C164.379 31.2434 164.746 31.0263 165.048 30.734C165.35 30.4417 165.578 30.0826 165.714 29.686C165.849 29.2893 165.888 28.8665 165.827 28.4522V21.2162C165.827 18.303 165.152 17.3918 162.977 17.3918H161.586V17.3972Z" fill="#EA293C"/>
<path d="M108.291 14.6035V50.084H104.889L100.022 28.5368V50.084H96.8286V14.6035H99.7658L105.098 38.1085V14.6035H108.291Z" fill="#EA293C"/>
</svg>
