<svg width="75" height="75" viewBox="0 0 75 75" fill="none" xmlns="http://www.w3.org/2000/svg">
<rect width="75" height="75" rx="10" fill="url(#paint0_linear)"/>
<path d="M52.855 36.8446C49.8944 36.8446 47.1052 36.8446 44.2969 36.8446C44.1827 35.829 43.8686 34.8792 43.326 34.0235C42.5073 32.7352 41.3078 32.0017 39.7657 31.776C38.0522 31.5221 36.4719 31.776 35.0916 32.848C33.9968 33.6943 33.3781 34.8886 33.0544 36.1863C32.7498 37.3994 32.6165 38.6501 32.4642 39.882C32.3785 40.5779 32.3405 41.2832 32.369 41.979C32.4547 43.9444 32.6546 45.9004 33.5494 47.7153C34.4633 49.5679 35.8912 50.7621 37.995 50.9596C41.0508 51.2511 43.0975 49.8688 44.0399 46.9818C44.1827 46.5587 44.2589 46.1167 44.3445 45.6747C44.3921 45.4396 44.4778 45.3268 44.7444 45.3268C47.4098 45.3362 50.0753 45.3268 52.7788 45.3268C52.5028 48.2984 51.6174 51.0066 49.7135 53.3482C47.962 55.511 45.6963 56.8746 43.0309 57.6363C40.9746 58.2287 38.8613 58.3416 36.7575 58.1817C33.816 57.9654 31.1029 57.025 28.8278 55.1161C26.9715 53.5551 25.6673 51.5897 24.8296 49.3234C24.2108 47.6401 23.8015 45.9192 23.6872 44.1325C23.6206 43.0887 23.4778 42.0449 23.5159 41.0105C23.6206 37.9636 24.068 34.9827 25.4579 32.1897C27.3046 28.4941 30.2557 26.1619 34.2729 25.0993C36.2339 24.5821 38.233 24.5163 40.2321 24.6479C42.6596 24.8172 44.9728 25.4284 47.0671 26.745C49.4756 28.259 51.0939 30.3748 51.9506 33.0267C52.3409 34.2586 52.5504 35.5281 52.855 36.8446Z" fill="white"/>
<path d="M6 31.607C6 29.6228 6 27.7327 6 25.7861C7.38033 25.7861 8.75114 25.7861 10.1695 25.7861C10.1695 22.8803 10.1695 20.0216 10.1695 17.144C13.0064 17.144 15.7956 17.144 18.6324 17.144C18.6324 19.9934 18.6324 22.8521 18.6324 25.7579C20.2697 25.7579 21.869 25.7579 23.4873 25.7579C23.4873 27.7139 23.4873 29.6228 23.4873 31.5788C21.9071 31.5788 20.3078 31.5788 18.6609 31.5788C18.6609 31.8139 18.6609 31.9926 18.6609 32.1712C18.6609 37.8887 18.6705 43.6062 18.6514 49.3237C18.6514 50.4615 19.3083 51.0352 20.4411 51.054C21.4502 51.0728 22.4592 51.054 23.4873 51.054C23.4873 53.2545 23.4873 55.3233 23.4873 57.4109C23.4302 57.4297 23.3826 57.4485 23.335 57.4485C21.3454 57.4861 19.3463 57.5802 17.3568 57.5238C16.2811 57.4955 15.1863 57.3169 14.1582 57.016C12.1115 56.4141 10.9882 54.9189 10.5789 52.8971C10.4171 52.0884 10.3028 51.2703 10.2933 50.4521C10.2362 44.3585 10.2171 38.2743 10.1886 32.1806C10.1886 32.0114 10.1886 31.8421 10.1886 31.6164C8.7797 31.607 7.40889 31.607 6 31.607Z" fill="white"/>
<path d="M69 25.7487C69 27.7235 69 29.6231 69 31.5696C67.3722 31.5696 65.7539 31.5696 64.0594 31.5696C64.0594 31.7859 64.0594 31.9552 64.0594 32.1151C64.0594 37.7855 64.0499 43.456 64.0689 49.1358C64.0689 50.49 64.5068 51.0166 66.0109 51.0542C66.9914 51.0824 67.9624 51.0636 68.9715 51.0636C68.9715 53.2547 68.9715 55.3235 68.9715 57.4111C68.9239 57.43 68.8858 57.4488 68.8382 57.4582C66.6963 57.4958 64.5639 57.571 62.422 57.5428C61.2036 57.524 59.9851 57.2889 58.8618 56.7811C57.2815 56.0664 56.3962 54.7781 56.0725 53.1418C55.8441 52.004 55.7013 50.8379 55.6918 49.6813C55.6537 43.8697 55.6727 38.0582 55.6727 32.2373C55.6727 32.0492 55.6727 31.8612 55.6727 31.6261C54.2829 31.6261 52.9121 31.6261 51.5127 31.6261C51.5127 29.6607 51.5127 27.7423 51.5127 25.7957C52.8835 25.7957 54.2448 25.7957 55.6537 25.7957C55.6537 22.9088 55.6537 20.05 55.6537 17.1631C58.4715 17.1631 61.2321 17.1631 64.0404 17.1631C64.0404 20.0218 64.0404 22.8712 64.0404 25.7675C65.7063 25.7487 67.3246 25.7487 69 25.7487Z" fill="white"/>
<path d="M53.6452 67.7829C53.331 67.7829 53.0549 67.7829 52.7408 67.7829C52.7408 65.6765 52.7408 63.5982 52.7408 61.52C52.7122 61.5106 52.6742 61.5012 52.6456 61.4918C51.7698 63.5794 50.9035 65.6671 50.0277 67.7641C49.6945 67.9146 49.5803 67.7171 49.4661 67.435C48.6855 65.526 47.8858 63.6265 47.0957 61.7269C47.0672 61.6517 47.0196 61.5764 46.9148 61.5106C46.9148 63.5888 46.9148 65.6577 46.9148 67.7641C46.5912 67.7641 46.3056 67.7641 45.9915 67.7641C45.9915 65.1875 45.9915 62.6297 45.9915 60.0248C46.4389 60.0248 46.8863 60.0248 47.3432 60.0248C48.1429 61.9526 48.952 63.8898 49.8088 65.9398C50.2752 64.8489 50.6846 63.8804 51.0939 62.9118C51.4652 62.0278 51.8174 61.1345 52.2077 60.2505C52.2553 60.1377 52.4362 60.006 52.5599 59.9966C52.9026 59.959 53.2549 59.9872 53.6356 59.9872C53.6452 62.592 53.6452 65.1687 53.6452 67.7829Z" fill="white"/>
<path d="M67.6768 64.6141C66.7439 64.6141 65.8586 64.6141 64.9447 64.6141C64.9447 64.3226 64.9447 64.0687 64.9447 63.7865C66.1537 63.7865 67.3531 63.7865 68.6192 63.7865C68.6192 64.7175 68.6192 65.6485 68.6097 66.5795C68.6097 66.6547 68.5145 66.7393 68.4479 66.7957C67.2294 67.9242 65.8015 68.2627 64.2212 67.7925C62.6981 67.3412 61.7747 66.2691 61.5082 64.7457C61.2797 63.401 61.4986 62.1127 62.5363 61.0689C64.0689 59.536 67.0009 59.4514 68.5336 61.3228C68.2956 61.4732 68.0671 61.6143 67.8101 61.7741C67.1532 61.0783 66.3536 60.7209 65.3921 60.7491C63.6501 60.815 62.4601 62.0657 62.4316 63.7019C62.403 65.3758 63.1646 66.5136 64.5354 66.9744C65.6396 67.3412 66.6011 67.059 67.4769 66.382C67.5816 66.3067 67.6482 66.1187 67.6482 65.987C67.6863 65.5544 67.6768 65.1125 67.6768 64.6141Z" fill="white"/>
<path d="M55.2349 67.7928C54.8922 67.7928 54.578 67.7928 54.1687 67.7928C55.2349 65.1785 56.2915 62.5925 57.3387 60.0252C58.5382 59.9406 58.5286 59.9406 58.9665 61.0126C59.8328 63.1191 60.6991 65.2255 61.5654 67.332C61.6225 67.473 61.6606 67.6235 61.7081 67.7739C60.6991 67.8586 60.6991 67.8586 60.3373 66.984C59.947 66.0248 59.947 66.0248 58.8904 66.0248C58.0146 66.0248 57.1483 66.0248 56.2725 66.0248C56.044 66.0248 55.9108 66.0625 55.8251 66.3164C55.6823 66.8054 55.4538 67.2849 55.2349 67.7928ZM57.967 60.834C57.3673 62.348 56.8056 63.7397 56.244 65.1503C57.4053 65.1503 58.5096 65.1503 59.671 65.1503C59.1093 63.7303 58.5667 62.3386 57.967 60.834Z" fill="white"/>
<defs>
<linearGradient id="paint0_linear" x1="37.5" y1="0" x2="37.5" y2="75" gradientUnits="userSpaceOnUse">
<stop stop-color="#293890"/>
<stop offset="1" stop-color="#1FA6DF"/>
</linearGradient>
</defs>
</svg>
