<svg width="20" height="19" viewBox="0 0 20 19" xmlns="http://www.w3.org/2000/svg">
<path d="M6.29 17.4236C13.8373 17.4236 17.9645 11.0127 17.9645 5.45272C17.9645 5.2709 17.9609 5.08908 17.9527 4.90908C18.7594 4.31039 19.4527 3.57244 20 2.72999C19.2529 3.06994 18.4583 3.29374 17.6436 3.39363C18.5058 2.86012 19.1466 2.03345 19.4482 1.06545C18.6455 1.55438 17.7639 1.89984 16.8427 2.08635C16.4635 1.66843 16.0012 1.33433 15.4854 1.10546C14.9695 0.876588 14.4116 0.757989 13.8473 0.757263C11.5809 0.757263 9.74364 2.64181 9.74364 4.96454C9.74364 5.29454 9.78 5.61544 9.85 5.92363C6.44 5.74817 3.41545 4.07363 1.39091 1.52817C1.02602 2.17309 0.834932 2.90173 0.836364 3.64272C0.836364 5.10272 1.56091 6.3909 2.66273 7.14454C2.00932 7.12371 1.37098 6.94298 0.803636 6.61817V6.67272C0.803636 8.70999 2.21727 10.4109 4.09455 10.7973C3.49085 10.9643 2.85663 10.9889 2.24182 10.8691C2.76455 12.5409 4.27818 13.7573 6.07545 13.7909C5.23129 14.4738 4.25846 14.9801 3.21478 15.2796C2.17109 15.5792 1.07785 15.6658 0 15.5345C1.86599 16.7678 4.05331 17.4253 6.29 17.4254" />
</svg>
