<svg width="142" height="40" viewBox="0 0 142 40" fill="none" xmlns="http://www.w3.org/2000/svg">
<g clip-path="url(#clip0)">
<path fill-rule="evenodd" clip-rule="evenodd" d="M26.5603 9.90268H18.191L13.2862 21.7223L8.38145 9.90268H0.012207C3.05239 17.2288 6.09138 24.5562 9.13276 31.8815L5.76374 40H14.133C18.3182 29.9143 22.402 19.9229 26.5601 9.90288L26.5603 9.90268ZM132.981 0.0630294H141.988L133.843 19.9761H124.836L132.981 0.0630294ZM127.05 21.8964C129.855 21.8964 132.129 24.1968 132.129 27.0345C132.129 29.8723 129.855 32.1726 127.05 32.1726C124.246 32.1726 121.972 29.8723 121.972 27.0345C121.972 24.197 124.246 21.8964 127.05 21.8964ZM109.341 9.30491C115.648 9.30491 120.76 14.478 120.76 20.8591C120.76 27.2404 115.647 32.4132 109.341 32.4132C103.034 32.4132 97.9216 27.2402 97.9216 20.8591C97.9216 14.4778 103.034 9.30491 109.341 9.30491ZM109.341 16.3476C111.803 16.3476 113.8 18.3676 113.8 20.8593C113.8 23.351 111.803 25.3709 109.341 25.3709C106.878 25.3709 104.882 23.351 104.882 20.8593C104.882 18.3676 106.878 16.3476 109.341 16.3476ZM84.8255 9.30491C91.1323 9.30491 96.2447 14.478 96.2447 20.8591C96.2447 27.2404 91.1321 32.4132 84.8255 32.4132C78.5187 32.4132 73.4063 27.2402 73.4063 20.8591C73.4063 14.4778 78.5189 9.30491 84.8255 9.30491ZM84.8255 16.3476C87.2881 16.3476 89.2844 18.3676 89.2844 20.8593C89.2844 23.351 87.2881 25.3709 84.8255 25.3709C82.3629 25.3709 80.3666 23.351 80.3666 20.8593C80.3666 18.3676 82.3629 16.3476 84.8255 16.3476ZM51.1125 0.000202017H58.6638V11.8784C58.6638 11.8784 59.9849 9.30491 64.349 9.30491C68.7132 9.30491 71.5121 11.2477 71.568 19.2029V32.1726H64.0168V19.2029C64.0168 17.7072 62.8185 16.4947 61.3402 16.4947C59.8278 16.4947 58.627 17.7529 58.6648 19.2797L58.6636 32.1726H51.1123V0L51.1125 0.000202017ZM40.8304 9.90268H48.3816V32.1728H40.8304V30.0735C39.1393 31.5417 37.0319 32.4137 34.7466 32.4137C29.1778 32.4137 24.6633 27.2406 24.6633 20.8595C24.6633 14.4782 29.1778 9.30532 34.7466 9.30532C37.0319 9.30532 39.1395 10.177 40.8304 11.6455V9.90308V9.90268ZM36.5771 16.3476C39.0397 16.3476 41.036 18.3676 41.036 20.8593C41.036 23.351 39.0397 25.3709 36.5771 25.3709C34.1145 25.3709 32.1181 23.351 32.1181 20.8593C32.1181 18.3676 34.1145 16.3476 36.5771 16.3476Z" fill="#6001D2"/>
</g>
<defs>
<clipPath id="clip0">
<rect width="142" height="40" fill="white"/>
</clipPath>
</defs>
</svg>
