<svg width="22" height="15" viewBox="0 0 22 15"  xmlns="http://www.w3.org/2000/svg">
<g clip-path="url(#clip0)">
<path fill-rule="evenodd" clip-rule="evenodd" d="M11.2171 -0.000976562C12.4033 0.00360677 18.061 0.0448568 19.5936 0.436273C20.5405 0.67644 21.2849 1.38594 21.5397 2.28794C21.998 3.92236 21.998 7.33236 21.998 7.33236V7.34244C21.998 7.54411 21.9834 10.7919 21.5397 12.3749C21.2849 13.276 20.5405 13.9864 19.5936 14.2275C18.0243 14.6281 12.132 14.662 11.1401 14.6648H10.856C9.86413 14.662 3.9718 14.6281 2.4043 14.2275C1.45555 13.9864 0.710297 13.276 0.458214 12.3749C0.0411302 10.8945 0.00171354 7.95661 -0.00195312 7.41761V7.24619C0.00171354 6.70811 0.0411302 3.76836 0.458214 2.28794C0.711214 1.38594 1.45555 0.67644 2.40338 0.436273C3.93605 0.0457734 9.5928 0.00360677 10.7799 -5.98957e-05L11.2171 -0.000976562ZM8.79805 4.18819V10.4738L14.5135 7.33144L8.79805 4.18727V4.18819Z" />
</g>
<defs>
<clipPath id="clip0">
<rect width="22" height="14.6667" />
</clipPath>
</defs>
</svg>
